<svg width="154" height="28" viewBox="0 0 154 28" fill="none" xmlns="http://www.w3.org/2000/svg">
    <path d="M0.784091 27V0.818181H2.3821V25.517H15.1662V27H0.784091ZM40.8398 13.9091C40.8398 16.6108 40.3711 18.9716 39.4336 20.9915C38.4961 23.0028 37.1921 24.5668 35.5217 25.6832C33.8597 26.7997 31.9421 27.358 29.7688 27.358C27.587 27.358 25.6609 26.7997 23.9904 25.6832C22.3285 24.5582 21.0288 22.9901 20.0913 20.9787C19.1538 18.9588 18.685 16.6023 18.685 13.9091C18.685 11.2074 19.1538 8.85085 20.0913 6.83949C21.0373 4.82812 22.3413 3.2642 24.0032 2.14773C25.6651 1.02273 27.587 0.460226 29.7688 0.460226C31.9421 0.460226 33.8597 1.01846 35.5217 2.13494C37.1921 3.25142 38.4961 4.8196 39.4336 6.83949C40.3711 8.85085 40.8398 11.2074 40.8398 13.9091ZM39.2802 13.9091C39.2802 11.4801 38.8711 9.375 38.0529 7.59375C37.2433 5.8125 36.1225 4.43608 34.6907 3.46449C33.2589 2.48437 31.6183 1.99432 29.7688 1.99432C27.9194 1.99432 26.2788 2.48011 24.8469 3.4517C23.4151 4.41477 22.2901 5.79119 21.4719 7.58097C20.6623 9.36222 20.2575 11.4716 20.2575 13.9091C20.2575 16.321 20.658 18.4219 21.4592 20.2116C22.2688 21.9929 23.3896 23.3736 24.8214 24.3537C26.2532 25.3338 27.9023 25.8239 29.7688 25.8239C31.6183 25.8239 33.2589 25.3381 34.6907 24.3665C36.1225 23.3864 37.2433 22.0057 38.0529 20.2244C38.8711 18.4432 39.2802 16.3381 39.2802 13.9091ZM46.2283 0.818181L53.9627 12.669H54.1033L61.8377 0.818181H63.7681L55.1644 13.9091L63.7681 27H61.8377L54.1033 15.2259H53.9627L46.2283 27H44.2979L52.9783 13.9091L44.2979 0.818181H46.2283ZM91.0526 10.6364H83.8423C83.7912 10.0398 83.6548 9.49858 83.4332 9.01278C83.2202 8.52699 82.9219 8.10937 82.5384 7.75994C82.1634 7.40199 81.7074 7.12926 81.1705 6.94176C80.6335 6.74574 80.0241 6.64773 79.3423 6.64773C78.1491 6.64773 77.1392 6.9375 76.3125 7.51705C75.4943 8.09659 74.8722 8.92756 74.446 10.0099C74.0284 11.0923 73.8196 12.392 73.8196 13.9091C73.8196 15.5114 74.0327 16.8537 74.4588 17.9361C74.8935 19.0099 75.5199 19.8196 76.3381 20.3651C77.1563 20.902 78.1406 21.1705 79.2912 21.1705C79.9474 21.1705 80.5355 21.0895 81.0554 20.9276C81.5753 20.7571 82.027 20.5142 82.4105 20.1989C82.794 19.8835 83.1051 19.5043 83.3438 19.0611C83.5909 18.6094 83.7571 18.1023 83.8423 17.5398L91.0526 17.5909C90.9673 18.6989 90.6563 19.8281 90.1193 20.9787C89.5824 22.1207 88.8196 23.1776 87.831 24.1491C86.8509 25.1122 85.6364 25.8878 84.1875 26.4759C82.7386 27.0639 81.0554 27.358 79.1378 27.358C76.7344 27.358 74.5781 26.8423 72.669 25.8111C70.7685 24.7798 69.2642 23.2628 68.1562 21.2599C67.0568 19.2571 66.5071 16.8068 66.5071 13.9091C66.5071 10.9943 67.0696 8.53977 68.1946 6.54545C69.3196 4.54261 70.8366 3.02983 72.7457 2.0071C74.6548 0.975851 76.7855 0.460226 79.1378 0.460226C80.7912 0.460226 82.3125 0.686078 83.7017 1.13778C85.0909 1.58949 86.3097 2.25 87.358 3.11932C88.4063 3.98011 89.25 5.04119 89.8892 6.30256C90.5284 7.56392 90.9162 9.00852 91.0526 10.6364ZM119.641 13.9091C119.641 16.8239 119.074 19.2827 117.941 21.2855C116.807 23.2798 115.277 24.7926 113.351 25.8239C111.425 26.8466 109.277 27.358 106.908 27.358C104.522 27.358 102.365 26.8423 100.439 25.8111C98.5217 24.7713 96.9961 23.2543 95.8626 21.2599C94.7376 19.2571 94.1751 16.8068 94.1751 13.9091C94.1751 10.9943 94.7376 8.53977 95.8626 6.54545C96.9961 4.54261 98.5217 3.02983 100.439 2.0071C102.365 0.975851 104.522 0.460226 106.908 0.460226C109.277 0.460226 111.425 0.975851 113.351 2.0071C115.277 3.02983 116.807 4.54261 117.941 6.54545C119.074 8.53977 119.641 10.9943 119.641 13.9091ZM112.328 13.9091C112.328 12.3409 112.12 11.0199 111.702 9.94602C111.293 8.86364 110.684 8.04545 109.874 7.49148C109.073 6.92898 108.084 6.64773 106.908 6.64773C105.732 6.64773 104.739 6.92898 103.929 7.49148C103.128 8.04545 102.519 8.86364 102.101 9.94602C101.692 11.0199 101.488 12.3409 101.488 13.9091C101.488 15.4773 101.692 16.8026 102.101 17.8849C102.519 18.9588 103.128 19.777 103.929 20.3395C104.739 20.8935 105.732 21.1705 106.908 21.1705C108.084 21.1705 109.073 20.8935 109.874 20.3395C110.684 19.777 111.293 18.9588 111.702 17.8849C112.12 16.8026 112.328 15.4773 112.328 13.9091ZM122.93 0.818181H131.776L137.862 15.6477H138.168L144.254 0.818181H153.1V27H146.146V11.8636H145.941L140.112 26.7955H135.918L130.089 11.7614H129.884V27H122.93V0.818181Z" fill="#1C1C1C" fill-opacity="0.756863"/>
</svg>
