<svg width="153" height="28" viewBox="0 0 153 28" fill="none" xmlns="http://www.w3.org/2000/svg">
<path d="M0.284091 27V0.818181H1.8821V25.517H14.6662V27H0.284091ZM40.3398 13.9091C40.3398 16.6108 39.8711 18.9716 38.9336 20.9915C37.9961 23.0028 36.6921 24.5668 35.0217 25.6832C33.3597 26.7997 31.4421 27.358 29.2688 27.358C27.087 27.358 25.1609 26.7997 23.4904 25.6832C21.8285 24.5582 20.5288 22.9901 19.5913 20.9787C18.6538 18.9588 18.185 16.6023 18.185 13.9091C18.185 11.2074 18.6538 8.85085 19.5913 6.83949C20.5373 4.82812 21.8413 3.2642 23.5032 2.14773C25.1651 1.02273 27.087 0.460226 29.2688 0.460226C31.4421 0.460226 33.3597 1.01846 35.0217 2.13494C36.6921 3.25142 37.9961 4.8196 38.9336 6.83949C39.8711 8.85085 40.3398 11.2074 40.3398 13.9091ZM38.7802 13.9091C38.7802 11.4801 38.3711 9.375 37.5529 7.59375C36.7433 5.8125 35.6225 4.43608 34.1907 3.46449C32.7589 2.48437 31.1183 1.99432 29.2688 1.99432C27.4194 1.99432 25.7788 2.48011 24.3469 3.4517C22.9151 4.41477 21.7901 5.79119 20.9719 7.58097C20.1623 9.36222 19.7575 11.4716 19.7575 13.9091C19.7575 16.321 20.158 18.4219 20.9592 20.2116C21.7688 21.9929 22.8896 23.3736 24.3214 24.3537C25.7532 25.3338 27.4023 25.8239 29.2688 25.8239C31.1183 25.8239 32.7589 25.3381 34.1907 24.3665C35.6225 23.3864 36.7433 22.0057 37.5529 20.2244C38.3711 18.4432 38.7802 16.3381 38.7802 13.9091ZM45.7283 0.818181L53.4627 12.669H53.6033L61.3377 0.818181H63.2681L54.6644 13.9091L63.2681 27H61.3377L53.6033 15.2259H53.4627L45.7283 27H43.7979L52.4783 13.9091L43.7979 0.818181H45.7283ZM90.5526 10.6364H83.3423C83.2912 10.0398 83.1548 9.49858 82.9332 9.01278C82.7202 8.52699 82.4219 8.10937 82.0384 7.75994C81.6634 7.40199 81.2074 7.12926 80.6705 6.94176C80.1335 6.74574 79.5241 6.64773 78.8423 6.64773C77.6491 6.64773 76.6392 6.9375 75.8125 7.51705C74.9943 8.09659 74.3722 8.92756 73.946 10.0099C73.5284 11.0923 73.3196 12.392 73.3196 13.9091C73.3196 15.5114 73.5327 16.8537 73.9588 17.9361C74.3935 19.0099 75.0199 19.8196 75.8381 20.3651C76.6563 20.902 77.6406 21.1705 78.7912 21.1705C79.4474 21.1705 80.0355 21.0895 80.5554 20.9276C81.0753 20.7571 81.527 20.5142 81.9105 20.1989C82.294 19.8835 82.6051 19.5043 82.8438 19.0611C83.0909 18.6094 83.2571 18.1023 83.3423 17.5398L90.5526 17.5909C90.4673 18.6989 90.1563 19.8281 89.6193 20.9787C89.0824 22.1207 88.3196 23.1776 87.331 24.1491C86.3509 25.1122 85.1364 25.8878 83.6875 26.4759C82.2386 27.0639 80.5554 27.358 78.6378 27.358C76.2344 27.358 74.0781 26.8423 72.169 25.8111C70.2685 24.7798 68.7642 23.2628 67.6562 21.2599C66.5568 19.2571 66.0071 16.8068 66.0071 13.9091C66.0071 10.9943 66.5696 8.53977 67.6946 6.54545C68.8196 4.54261 70.3366 3.02983 72.2457 2.0071C74.1548 0.975851 76.2855 0.460226 78.6378 0.460226C80.2912 0.460226 81.8125 0.686078 83.2017 1.13778C84.5909 1.58949 85.8097 2.25 86.858 3.11932C87.9063 3.98011 88.75 5.04119 89.3892 6.30256C90.0284 7.56392 90.4162 9.00852 90.5526 10.6364ZM119.141 13.9091C119.141 16.8239 118.574 19.2827 117.441 21.2855C116.307 23.2798 114.777 24.7926 112.851 25.8239C110.925 26.8466 108.777 27.358 106.408 27.358C104.022 27.358 101.865 26.8423 99.9393 25.8111C98.0217 24.7713 96.4961 23.2543 95.3626 21.2599C94.2376 19.2571 93.6751 16.8068 93.6751 13.9091C93.6751 10.9943 94.2376 8.53977 95.3626 6.54545C96.4961 4.54261 98.0217 3.02983 99.9393 2.0071C101.865 0.975851 104.022 0.460226 106.408 0.460226C108.777 0.460226 110.925 0.975851 112.851 2.0071C114.777 3.02983 116.307 4.54261 117.441 6.54545C118.574 8.53977 119.141 10.9943 119.141 13.9091ZM111.828 13.9091C111.828 12.3409 111.62 11.0199 111.202 9.94602C110.793 8.86364 110.184 8.04545 109.374 7.49148C108.573 6.92898 107.584 6.64773 106.408 6.64773C105.232 6.64773 104.239 6.92898 103.429 7.49148C102.628 8.04545 102.019 8.86364 101.601 9.94602C101.192 11.0199 100.988 12.3409 100.988 13.9091C100.988 15.4773 101.192 16.8026 101.601 17.8849C102.019 18.9588 102.628 19.777 103.429 20.3395C104.239 20.8935 105.232 21.1705 106.408 21.1705C107.584 21.1705 108.573 20.8935 109.374 20.3395C110.184 19.777 110.793 18.9588 111.202 17.8849C111.62 16.8026 111.828 15.4773 111.828 13.9091ZM122.43 0.818181H131.276L137.362 15.6477H137.668L143.754 0.818181H152.6V27H145.646V11.8636H145.441L139.612 26.7955H135.418L129.589 11.7614H129.384V27H122.43V0.818181Z" fill="white"/>
</svg>
